<svg data-v-423bf9ae="" xmlns="http://www.w3.org/2000/svg" viewBox="0 0 339 90" class="iconLeft"><!----><!----><!----><g data-v-423bf9ae="" id="4ffff1b4-3af8-4519-8bd9-3ef444915536" fill="black" transform="matrix(5.1948051090190095,0,0,5.1948051090190095,113.49814763110608,-3.6493525645540714)"><path d="M2.41 13.34C3.88 13.34 5.18 12.48 5.18 10.21L5.18 3.82L3.69 3.82L3.69 10.25C3.69 11.42 3.16 12.02 2.30 12.02C1.78 12.02 1.33 11.83 0.86 11.27L0.09 12.47C0.69 12.99 1.40 13.34 2.41 13.34ZM9.87 13.33C11.32 13.33 12.83 12.67 12.83 10.31L12.83 6.53L11.42 6.53L11.42 10.32C11.42 11.43 10.88 12.12 9.87 12.12C8.87 12.12 8.33 11.43 8.33 10.32L8.33 6.53L6.91 6.53L6.91 10.31C6.91 12.67 8.43 13.33 9.87 13.33ZM21.82 6.36C20.65 6.36 20.07 6.80 19.64 7.41C19.22 6.66 18.49 6.36 17.73 6.36C16.98 6.36 16.29 6.72 15.91 7.38L15.75 6.53L14.51 6.53L14.51 13.15L15.93 13.15L15.93 9.26C16.01 8.15 16.54 7.57 17.38 7.57C18.29 7.57 18.65 8.31 18.65 9.39L18.65 13.15L20.07 13.15L20.07 9.60C20.07 8.30 20.59 7.57 21.51 7.57C22.43 7.57 22.79 8.31 22.79 9.38L22.79 13.15L24.21 13.15L24.21 9.28C24.21 7.12 23.07 6.36 21.82 6.36ZM29.44 3.82L26.18 3.82L26.18 13.15L27.66 13.15L27.66 9.45L29.44 9.44C30.93 9.42 32.45 8.44 32.45 6.64C32.45 4.81 30.93 3.82 29.44 3.82ZM28.89 8.30L27.66 8.27L27.66 4.99L28.89 4.97C30.20 4.96 30.90 5.59 30.90 6.64C30.90 7.70 30.20 8.31 28.89 8.30ZM43.40 8.46C43.40 5.75 41.42 3.59 38.46 3.59C35.48 3.59 33.51 5.75 33.51 8.46C33.51 11.00 35.23 13.05 37.89 13.31L42.50 15.14L43.05 13.77L40.41 12.99C42.26 12.26 43.40 10.51 43.40 8.46ZM35.06 8.46C35.06 6.53 36.37 4.91 38.46 4.91C40.54 4.91 41.85 6.53 41.85 8.46C41.85 10.37 40.54 12.02 38.46 12.02C36.37 12.02 35.06 10.37 35.06 8.46Z"></path></g><!----><g data-v-423bf9ae="" id="71eb140d-7639-4bc4-9d8b-e3036f0277bc" transform="matrix(1.9233585208155224,0,0,1.9233585208155224,-0.5110008705256988,-2.4801437502546975)" stroke="none" fill="black"><path d="M42.187 30.881l-26.006 8.123M41.73 29.426l-26.004 8.117.911 2.918 26.006-8.123z"></path><path d="M18.572 42.535a2.23 2.23 0 0 1-.513 1.664 2.253 2.253 0 0 1-1.539.814 2.277 2.277 0 1 1-1.969-3.723 2.25 2.25 0 0 1 1.542-.813 2.242 2.242 0 0 1 1.666.514c.47.388.756.935.813 1.544zm-2.764-5.101a5.322 5.322 0 0 0-3.609 1.91 5.309 5.309 0 0 0-1.201 3.9 5.342 5.342 0 0 0 5.807 4.811 5.279 5.279 0 0 0 3.605-1.908 5.275 5.275 0 0 0 1.204-3.898 5.289 5.289 0 0 0-1.907-3.607 5.301 5.301 0 0 0-3.899-1.208zM13.436 30.992l26.118 8.447M39.081 40.897L12.97 32.449l.94-2.907 26.113 8.448z"></path><path d="M32.707 42.547a5.286 5.286 0 0 0 1.186 3.902 5.288 5.288 0 0 0 3.599 1.922 5.337 5.337 0 0 0 5.828-4.781 5.343 5.343 0 0 0-4.786-5.83 5.294 5.294 0 0 0-3.903 1.188 5.282 5.282 0 0 0-1.924 3.599zm5.529-1.752a2.287 2.287 0 0 1 2.044 2.494 2.29 2.29 0 0 1-2.491 2.049 2.301 2.301 0 0 1-1.538-.824 2.268 2.268 0 0 1-.505-1.674 2.27 2.27 0 0 1 .822-1.537 2.273 2.273 0 0 1 1.668-.508z"></path><g><path d="M11.115 19.867L5.497 2.681 5.155 1.64l-1.097-.01L.6 1.603.572 4.656l3.461.029L2.594 3.63l5.62 17.182z"></path></g><g><path d="M17.158 26.744h20.74l2.869-7.362-25.697.092z"></path><path d="M5.756 13.544L12.45 32.75l29.955-.223 7.022-18.983H5.756zm34.609 15.282l-.379.973H14.86l-.318-1.104-2.963-10.315-.558-1.939 2.021-.008 29.954-.109 2.243-.01-.815 2.088-4.059 10.424z"></path></g><g><path clip-rule="evenodd" d="M32.577 11.763h3.868L32.577 8.57l-3.866-3.191-3.864 3.191-3.865 3.193h11.595z"></path></g></g><!----></svg>