<svg data-v-423bf9ae="" xmlns="http://www.w3.org/2000/svg" viewBox="0 0 62.643786435999125 60" class="icon"><!----><!----><!----><!----><g data-v-423bf9ae="" id="854e9c8a-6251-4a08-bed8-2f5fd082e345" transform="matrix(1.282239013877015,0,0,1.282239013877015,-0.7334407361744937,-2.0554293159275545)" stroke="none" fill="white"><path d="M42.187 30.881l-26.006 8.123M41.73 29.426l-26.004 8.117.911 2.918 26.006-8.123z"></path><path d="M18.572 42.535a2.23 2.23 0 0 1-.513 1.664 2.253 2.253 0 0 1-1.539.814 2.277 2.277 0 1 1-1.969-3.723 2.25 2.25 0 0 1 1.542-.813 2.242 2.242 0 0 1 1.666.514c.47.388.756.935.813 1.544zm-2.764-5.101a5.322 5.322 0 0 0-3.609 1.91 5.309 5.309 0 0 0-1.201 3.9 5.342 5.342 0 0 0 5.807 4.811 5.279 5.279 0 0 0 3.605-1.908 5.275 5.275 0 0 0 1.204-3.898 5.289 5.289 0 0 0-1.907-3.607 5.301 5.301 0 0 0-3.899-1.208zM13.436 30.992l26.118 8.447M39.081 40.897L12.97 32.449l.94-2.907 26.113 8.448z"></path><path d="M32.707 42.547a5.286 5.286 0 0 0 1.186 3.902 5.288 5.288 0 0 0 3.599 1.922 5.337 5.337 0 0 0 5.828-4.781 5.343 5.343 0 0 0-4.786-5.83 5.294 5.294 0 0 0-3.903 1.188 5.282 5.282 0 0 0-1.924 3.599zm5.529-1.752a2.287 2.287 0 0 1 2.044 2.494 2.29 2.29 0 0 1-2.491 2.049 2.301 2.301 0 0 1-1.538-.824 2.268 2.268 0 0 1-.505-1.674 2.27 2.27 0 0 1 .822-1.537 2.273 2.273 0 0 1 1.668-.508z"></path><g><path d="M11.115 19.867L5.497 2.681 5.155 1.64l-1.097-.01L.6 1.603.572 4.656l3.461.029L2.594 3.63l5.62 17.182z"></path></g><g><path d="M17.158 26.744h20.74l2.869-7.362-25.697.092z"></path><path d="M5.756 13.544L12.45 32.75l29.955-.223 7.022-18.983H5.756zm34.609 15.282l-.379.973H14.86l-.318-1.104-2.963-10.315-.558-1.939 2.021-.008 29.954-.109 2.243-.01-.815 2.088-4.059 10.424z"></path></g><g><path clip-rule="evenodd" d="M32.577 11.763h3.868L32.577 8.57l-3.866-3.191-3.864 3.191-3.865 3.193h11.595z"></path></g></g><!----></svg>